<?xml version="1.0" encoding="UTF-8" standalone="no"?>
<!-- Created with Inkscape (http://www.inkscape.org/) -->

<svg
   xmlns:dc="http://purl.org/dc/elements/1.1/"
   xmlns:cc="http://creativecommons.org/ns#"
   xmlns:rdf="http://www.w3.org/1999/02/22-rdf-syntax-ns#"
   xmlns:svg="http://www.w3.org/2000/svg"
   xmlns="http://www.w3.org/2000/svg"
   xmlns:xlink="http://www.w3.org/1999/xlink"
   xmlns:sodipodi="http://sodipodi.sourceforge.net/DTD/sodipodi-0.dtd"
   xmlns:inkscape="http://www.inkscape.org/namespaces/inkscape"
   version="1.1"
   width="48"
   height="48"
   id="svg4910"
   inkscape:version="0.48.4 r9939"
   sodipodi:docname="bash-otube.svg">
  <sodipodi:namedview
     pagecolor="#ffffff"
     bordercolor="#666666"
     borderopacity="1"
     objecttolerance="10"
     gridtolerance="10"
     guidetolerance="10"
     inkscape:pageopacity="0"
     inkscape:pageshadow="2"
     inkscape:window-width="1366"
     inkscape:window-height="721"
     id="namedview119"
     showgrid="false"
     inkscape:zoom="10.582357"
     inkscape:cx="24"
     inkscape:cy="24"
     inkscape:window-x="0"
     inkscape:window-y="24"
     inkscape:window-maximized="1"
     inkscape:current-layer="layer1" />
  <defs
     id="defs4912">
    <linearGradient
       x1="526.91669"
       y1="812.36218"
       x2="527.75006"
       y2="812.36218"
       id="linearGradient4539-4-0"
       xlink:href="#linearGradient5761-4-6-3"
       gradientUnits="userSpaceOnUse"
       gradientTransform="matrix(1.1999999,0,0,1.2,-673.29999,-1013.3346)" />
    <linearGradient
       id="linearGradient5761-4-6-3">
      <stop
         id="stop5763-9-21-7"
         style="stop-color:#ffffff;stop-opacity:1"
         offset="0" />
      <stop
         id="stop5765-0-8-5"
         style="stop-color:#ffffff;stop-opacity:0"
         offset="1" />
    </linearGradient>
    <linearGradient
       x1="526.91669"
       y1="812.36218"
       x2="527.75006"
       y2="812.36218"
       id="linearGradient4539-7-4"
       xlink:href="#linearGradient5761-4-2-8"
       gradientUnits="userSpaceOnUse"
       gradientTransform="matrix(1.1999999,0,0,1.2,-664.29999,-1013.3346)" />
    <linearGradient
       id="linearGradient5761-4-2-8">
      <stop
         id="stop5763-9-2-0"
         style="stop-color:#ffffff;stop-opacity:1"
         offset="0" />
      <stop
         id="stop5765-0-98-6"
         style="stop-color:#ffffff;stop-opacity:0"
         offset="1" />
    </linearGradient>
    <linearGradient
       x1="526.91669"
       y1="812.36218"
       x2="527.75006"
       y2="812.36218"
       id="linearGradient4539-50"
       xlink:href="#linearGradient5761-4-1-3"
       gradientUnits="userSpaceOnUse"
       gradientTransform="matrix(1.1999999,0,0,1.2,-655.29999,-1013.3346)" />
    <linearGradient
       id="linearGradient5761-4-1-3">
      <stop
         id="stop5763-9-6-5"
         style="stop-color:#ffffff;stop-opacity:1"
         offset="0" />
      <stop
         id="stop5765-0-1-2"
         style="stop-color:#ffffff;stop-opacity:0"
         offset="1" />
    </linearGradient>
    <linearGradient
       x1="526.91669"
       y1="812.36218"
       x2="527.75006"
       y2="812.36218"
       id="linearGradient3256-5-8"
       xlink:href="#linearGradient5761-4-3"
       gradientUnits="userSpaceOnUse"
       gradientTransform="matrix(1.1999999,0,0,1.2,-646.29999,-1013.3346)" />
    <linearGradient
       id="linearGradient5761-4-3">
      <stop
         id="stop5763-9-8"
         style="stop-color:#ffffff;stop-opacity:1"
         offset="0" />
      <stop
         id="stop5765-0-2"
         style="stop-color:#ffffff;stop-opacity:0"
         offset="1" />
    </linearGradient>
    <linearGradient
       x1="23.99999"
       y1="6.0325513"
       x2="23.999998"
       y2="42.032551"
       id="linearGradient3114-0-0-8"
       xlink:href="#linearGradient4656-7"
       gradientUnits="userSpaceOnUse"
       gradientTransform="matrix(-1,0,0,1,45.543078,-0.16651401)" />
    <linearGradient
       id="linearGradient4656-7">
      <stop
         id="stop4658-9"
         style="stop-color:#ffffff;stop-opacity:1"
         offset="0" />
      <stop
         id="stop4660-7"
         style="stop-color:#ffffff;stop-opacity:0.23529412"
         offset="0.01251137" />
      <stop
         id="stop4662-1"
         style="stop-color:#ffffff;stop-opacity:0.15686275"
         offset="0.98911917" />
      <stop
         id="stop4664-8"
         style="stop-color:#ffffff;stop-opacity:0.39215687"
         offset="1" />
    </linearGradient>
    <linearGradient
       x1="526.91669"
       y1="812.36218"
       x2="527.75006"
       y2="812.36218"
       id="linearGradient4539-4"
       xlink:href="#linearGradient5761-4-6"
       gradientUnits="userSpaceOnUse"
       gradientTransform="matrix(1.1999999,0,0,1.2,-673.29999,-965.33457)" />
    <linearGradient
       id="linearGradient5761-4-6">
      <stop
         id="stop5763-9-21"
         style="stop-color:#ffffff;stop-opacity:1"
         offset="0" />
      <stop
         id="stop5765-0-8"
         style="stop-color:#ffffff;stop-opacity:0"
         offset="1" />
    </linearGradient>
    <linearGradient
       x1="526.91669"
       y1="812.36218"
       x2="527.75006"
       y2="812.36218"
       id="linearGradient4539-7"
       xlink:href="#linearGradient5761-4-2"
       gradientUnits="userSpaceOnUse"
       gradientTransform="matrix(1.1999999,0,0,1.2,-664.29999,-965.33457)" />
    <linearGradient
       id="linearGradient5761-4-2">
      <stop
         id="stop5763-9-2"
         style="stop-color:#ffffff;stop-opacity:1"
         offset="0" />
      <stop
         id="stop5765-0-98"
         style="stop-color:#ffffff;stop-opacity:0"
         offset="1" />
    </linearGradient>
    <linearGradient
       x1="526.91669"
       y1="812.36218"
       x2="527.75006"
       y2="812.36218"
       id="linearGradient4539"
       xlink:href="#linearGradient5761-4-1"
       gradientUnits="userSpaceOnUse"
       gradientTransform="matrix(1.1999999,0,0,1.2,-655.29999,-965.33457)" />
    <linearGradient
       id="linearGradient5761-4-1">
      <stop
         id="stop5763-9-6"
         style="stop-color:#ffffff;stop-opacity:1"
         offset="0" />
      <stop
         id="stop5765-0-1"
         style="stop-color:#ffffff;stop-opacity:0"
         offset="1" />
    </linearGradient>
    <linearGradient
       x1="23.99999"
       y1="5.5714178"
       x2="23.99999"
       y2="42.42857"
       id="linearGradient3114-0"
       xlink:href="#linearGradient4339"
       gradientUnits="userSpaceOnUse"
       gradientTransform="translate(-0.47248221,0.21147362)" />
    <linearGradient
       id="linearGradient4339">
      <stop
         id="stop4341"
         style="stop-color:#ffffff;stop-opacity:1"
         offset="0" />
      <stop
         id="stop4343"
         style="stop-color:#ffffff;stop-opacity:0.23529412"
         offset="0.03308937" />
      <stop
         id="stop4345"
         style="stop-color:#ffffff;stop-opacity:0.15686275"
         offset="0.96994317" />
      <stop
         id="stop4347"
         style="stop-color:#ffffff;stop-opacity:0.39215687"
         offset="1" />
    </linearGradient>
    <linearGradient
       x1="526.91669"
       y1="812.36218"
       x2="527.75006"
       y2="812.36218"
       id="linearGradient3256-5"
       xlink:href="#linearGradient5761-4"
       gradientUnits="userSpaceOnUse"
       gradientTransform="matrix(1.1999999,0,0,1.2,-646.29999,-965.33457)" />
    <linearGradient
       id="linearGradient5761-4">
      <stop
         id="stop5763-9"
         style="stop-color:#ffffff;stop-opacity:1"
         offset="0" />
      <stop
         id="stop5765-0"
         style="stop-color:#ffffff;stop-opacity:0"
         offset="1" />
    </linearGradient>
    <linearGradient
       x1="23.99999"
       y1="6.0325513"
       x2="23.999998"
       y2="42.032551"
       id="linearGradient3114-0-0"
       xlink:href="#linearGradient4656"
       gradientUnits="userSpaceOnUse"
       gradientTransform="translate(1.8899406,0.77845508)" />
    <linearGradient
       id="linearGradient4656">
      <stop
         id="stop4658"
         style="stop-color:#ffffff;stop-opacity:1"
         offset="0" />
      <stop
         id="stop4660"
         style="stop-color:#ffffff;stop-opacity:0.23529412"
         offset="0.01251137" />
      <stop
         id="stop4662"
         style="stop-color:#ffffff;stop-opacity:0.15686275"
         offset="0.98911917" />
      <stop
         id="stop4664"
         style="stop-color:#ffffff;stop-opacity:0.39215687"
         offset="1" />
    </linearGradient>
    <linearGradient
       x1="612.70459"
       y1="477.73749"
       x2="612.70459"
       y2="422.65628"
       id="linearGradient4436"
       xlink:href="#linearGradient2490-1"
       gradientUnits="userSpaceOnUse" />
    <linearGradient
       id="linearGradient2490-1">
      <stop
         id="stop2492-7"
         style="stop-color:#791235;stop-opacity:1"
         offset="0" />
      <stop
         id="stop2494-2"
         style="stop-color:#dd3b27;stop-opacity:1"
         offset="1" />
    </linearGradient>
    <linearGradient
       x1="612.70459"
       y1="479.70468"
       x2="612.70459"
       y2="422.65628"
       id="linearGradient4453"
       xlink:href="#linearGradient2490-1-2"
       gradientUnits="userSpaceOnUse" />
    <linearGradient
       id="linearGradient2490-1-2">
      <stop
         id="stop2492-7-3"
         style="stop-color:#791235;stop-opacity:1"
         offset="0" />
      <stop
         id="stop2494-2-4"
         style="stop-color:#dd3b27;stop-opacity:1"
         offset="1" />
    </linearGradient>
    <linearGradient
       x1="612.70459"
       y1="481.67188"
       x2="612.70459"
       y2="422.65628"
       id="linearGradient4453-6"
       xlink:href="#linearGradient2490-1-7"
       gradientUnits="userSpaceOnUse" />
    <linearGradient
       id="linearGradient2490-1-7">
      <stop
         id="stop2492-7-5"
         style="stop-color:#791235;stop-opacity:1"
         offset="0" />
      <stop
         id="stop2494-2-7"
         style="stop-color:#dd3b27;stop-opacity:1"
         offset="1" />
    </linearGradient>
    <radialGradient
       cx="4.9929786"
       cy="43.5"
       r="2.5"
       fx="4.9929786"
       fy="43.5"
       id="radialGradient2873-966-168"
       xlink:href="#linearGradient3688-166-749"
       gradientUnits="userSpaceOnUse"
       gradientTransform="matrix(2.003784,0,0,1.4,27.98813,-17.4)" />
    <linearGradient
       id="linearGradient3688-166-749">
      <stop
         id="stop2883"
         style="stop-color:#181818;stop-opacity:1"
         offset="0" />
      <stop
         id="stop2885"
         style="stop-color:#181818;stop-opacity:0"
         offset="1" />
    </linearGradient>
    <radialGradient
       cx="4.9929786"
       cy="43.5"
       r="2.5"
       fx="4.9929786"
       fy="43.5"
       id="radialGradient2875-742-326"
       xlink:href="#linearGradient3688-464-309"
       gradientUnits="userSpaceOnUse"
       gradientTransform="matrix(2.003784,0,0,1.4,-20.01187,-104.4)" />
    <linearGradient
       id="linearGradient3688-464-309">
      <stop
         id="stop2889"
         style="stop-color:#181818;stop-opacity:1"
         offset="0" />
      <stop
         id="stop2891"
         style="stop-color:#181818;stop-opacity:0"
         offset="1" />
    </linearGradient>
    <linearGradient
       x1="25.058096"
       y1="47.027729"
       x2="25.058096"
       y2="39.999443"
       id="linearGradient2877-634-617"
       xlink:href="#linearGradient3702-501-757"
       gradientUnits="userSpaceOnUse" />
    <linearGradient
       id="linearGradient3702-501-757">
      <stop
         id="stop2895"
         style="stop-color:#181818;stop-opacity:0"
         offset="0" />
      <stop
         id="stop2897"
         style="stop-color:#181818;stop-opacity:1"
         offset="0.5" />
      <stop
         id="stop2899"
         style="stop-color:#181818;stop-opacity:0"
         offset="1" />
    </linearGradient>
    <linearGradient
       id="linearGradient3242-4">
      <stop
         id="stop3244-1"
         style="stop-color:#f89b7e;stop-opacity:1"
         offset="0" />
      <stop
         id="stop3246-0"
         style="stop-color:#e35d4f;stop-opacity:1"
         offset="0.26238" />
      <stop
         id="stop3248-3"
         style="stop-color:#c6262e;stop-opacity:1"
         offset="0.66093999" />
      <stop
         id="stop3250-7"
         style="stop-color:#690b2c;stop-opacity:1"
         offset="1" />
    </linearGradient>
    <radialGradient
       cx="7.4956832"
       cy="8.4497671"
       r="19.99999"
       fx="7.4956832"
       fy="8.4497671"
       id="radialGradient4906"
       xlink:href="#linearGradient3242-4"
       gradientUnits="userSpaceOnUse"
       gradientTransform="matrix(2.1486843e-8,2.3305413,-2.7341834,-4.2937466e-8,47.246549,-11.359558)" />
    <linearGradient
       x1="24"
       y1="44"
       x2="24"
       y2="3.8990016"
       id="linearGradient4908"
       xlink:href="#linearGradient2490-1"
       gradientUnits="userSpaceOnUse"
       gradientTransform="matrix(1.1059464,0,0,0.99724061,-38.213826,3.3088541)" />
    <linearGradient
       inkscape:collect="always"
       xlink:href="#linearGradient4339"
       id="linearGradient3271"
       gradientUnits="userSpaceOnUse"
       gradientTransform="translate(-1.1339605,0.68395816)"
       x1="23.99999"
       y1="5.5714178"
       x2="23.99999"
       y2="42.42857" />
  </defs>
  <metadata
     id="metadata4915">
    <rdf:RDF>
      <cc:Work
         rdf:about="">
        <dc:format>image/svg+xml</dc:format>
        <dc:type
           rdf:resource="http://purl.org/dc/dcmitype/StillImage" />
        <dc:title />
      </cc:Work>
    </rdf:RDF>
  </metadata>
  <g
     id="layer1"
     transform="translate(-1.039466,-3.3073918)">
    <rect
       width="19"
       height="39"
       x="-21.314329"
       y="7.7679257"
       id="rect4349"
       style="color:#000000;fill:#003380;fill-opacity:1;fill-rule:nonzero;stroke:url(#linearGradient4908);stroke-width:1;stroke-linecap:round;stroke-linejoin:round;stroke-miterlimit:4;stroke-opacity:1;stroke-dasharray:none;stroke-dashoffset:0;marker:none;visibility:visible;display:inline;overflow:visible;enable-background:accumulate" />
    <g
       transform="matrix(1.1,0,0,0.4444449,-2.4000022,25.11107)"
       id="g2036"
       style="display:inline">
      <g
         transform="matrix(1.052632,0,0,1.285713,-1.263158,-13.42854)"
         id="g3712"
         style="opacity:0.4">
        <rect
           width="5"
           height="7"
           x="38"
           y="40"
           id="rect2801"
           style="fill:url(#radialGradient2873-966-168);fill-opacity:1;stroke:none" />
        <rect
           width="5"
           height="7"
           x="-10"
           y="-47"
           transform="scale(-1,-1)"
           id="rect3696"
           style="fill:url(#radialGradient2875-742-326);fill-opacity:1;stroke:none" />
        <rect
           width="28"
           height="7.0000005"
           x="10"
           y="40"
           id="rect3700"
           style="fill:url(#linearGradient2877-634-617);fill-opacity:1;stroke:none" />
      </g>
    </g>
    <path
       d="m 599.78125,442.15625 a 7.0546228,7.0546228 0 0 0 -7.21875,7.0625 l 0,25.5625 a 7.0546228,7.0546228 0 0 0 10.59375,6.09375 l 22.125,-12.78125 a 7.0546228,7.0546228 0 0 0 0,-12.1875 l -22.125,-12.78125 a 7.0546228,7.0546228 0 0 0 -3.375,-0.96875 z"
       transform="matrix(0.49667601,0,0,0.50834023,-279.31567,-209.85319)"
       id="path4428-2"
       style="opacity:0.05;fill:url(#linearGradient4453-6);fill-opacity:1;fill-rule:evenodd;stroke:none"
       inkscape:connector-curvature="0" />
    <path
       d="m 7.0998898,6.8471627 c -0.4846058,0 -0.8747395,0.4662501 -0.8747395,1.0454045 l 0,34.4983578 c 0,0.579153 0.3901337,1.045404 0.8747395,1.045404 l 6.9979172,0 0,-36.5891663 z m 1.4870574,3.7527353 3.1490628,0 0,3.752736 -3.1490628,0 z m 0,8.443653 3.1490628,0 0,3.752736 -3.1490628,0 z m 0,8.443655 3.1490628,0 0,3.752735 -3.1490628,0 z m 0,8.443652 3.1490628,0 0,3.752736 -3.1490628,0 z"
       inkscape:connector-curvature="0"
       id="rect6104-7"
       style="color:#000000;fill:#000000;fill-opacity:0.78431373;fill-rule:nonzero;stroke:#000000;stroke-width:0.85941821;stroke-linecap:round;stroke-linejoin:miter;stroke-miterlimit:4;stroke-opacity:1;stroke-dasharray:none;stroke-dashoffset:0;marker:none;visibility:visible;display:inline;overflow:visible;enable-background:accumulate" />
    <rect
       width="17"
       height="37"
       x="14.366039"
       y="6.2165089"
       id="rect6741-8"
       style="opacity:0.50000000000000000;color:#000000;fill:#008000;stroke:url(#linearGradient3271);stroke-width:1;stroke-linecap:round;stroke-linejoin:miter;stroke-miterlimit:4;stroke-opacity:1;stroke-dasharray:none;stroke-dashoffset:0;marker:none;visibility:visible;display:inline;overflow:visible;enable-background:accumulate" />
    <path
       d="m 17.93302,29.893548 0,-12.999998 10.999998,6.499999 z"
       id="path6156"
       style="fill:#fafafa;fill-opacity:1;fill-rule:evenodd;stroke:#ffffff;stroke-width:1;stroke-linejoin:round;stroke-miterlimit:4;stroke-opacity:1;stroke-dasharray:none"
       inkscape:connector-curvature="0" />
    <path
       d="m 38.71717,6.9403891 c 0.49058,0 0.885521,0.4578535 0.885521,1.0265778 l 0,33.8770721 c 0,0.568724 -0.394941,1.026576 -0.885521,1.026576 l -7.084172,0 0,-35.9302259 z m -1.505387,3.6851519 -3.187876,0 0,3.68515 3.187876,0 z m 0,8.29159 -3.187876,0 0,3.685151 3.187876,0 z m 0,8.291591 -3.187876,0 0,3.685151 3.187876,0 z m 0,8.29159 -3.187876,0 0,3.685153 3.187876,0 z"
       inkscape:connector-curvature="0"
       id="rect6104-7-0"
       style="color:#000000;fill:#000000;fill-opacity:0.78431373;fill-rule:nonzero;stroke:#000000;stroke-width:0.85687697;stroke-linecap:round;stroke-linejoin:miter;stroke-miterlimit:4;stroke-opacity:1;stroke-dasharray:none;stroke-dashoffset:0;marker:none;visibility:visible;display:inline;overflow:visible;enable-background:accumulate" />
    <path
       style="fill:#003380"
       d="m -20.753736,27.279043 0,-18.9466304 8.929958,0 8.9299578,0 0,18.9466304 0,18.94663 -8.9299578,0 -8.929958,0 0,-18.94663 z"
       id="path3157"
       inkscape:connector-curvature="0" />
    <path
       style="fill:#003380"
       d="m -21.793202,8.5394676 c 0,-1.351803 -1.267288,-1.1953018 9.913228,-1.2242143 11.27272293,-0.029151 10.0256198,-0.1791862 10.0256198,1.2061531 l 0,0.8504722 -0.4724845,0 -0.4724846,0 0,-0.5669815 0,-0.5669814 -9.0244547,0 -9.024455,0 0,0.5669814 0,0.5669815 -0.472484,0 -0.472485,0 0,-0.832411 z"
       id="path3159"
       inkscape:connector-curvature="0" />
    <path
       style="fill:#003380"
       d="m -21.793202,8.5802255 c 0,-0.5573144 0.03855,-0.8236477 0.130235,-0.8997388 0.310209,-0.2574499 1.899031,-0.2986667 10.504867,-0.2725142 8.2319099,0.025016 8.8087096,0.0374 9.0480788,0.1942675 0.244608,0.1603005 0.255667,0.202198 0.255667,0.9685933 l 0,0.8010453 -0.4724845,0 -0.4724846,0 0,-0.5669815 0,-0.5669814 -9.0244547,0 -9.024455,0 0,0.5669814 0,0.5669815 -0.472484,0 -0.472485,0 0,-0.7916531 z"
       id="path3161"
       inkscape:connector-curvature="0" />
    <path
       style="fill:#003380"
       d="m -21.793202,8.5802255 c 0,-0.5573144 0.03855,-0.8236477 0.130235,-0.8997388 0.310209,-0.2574499 1.899031,-0.2986667 10.504867,-0.2725142 8.2319099,0.025016 8.8087096,0.0374 9.0480788,0.1942675 0.244608,0.1603005 0.255667,0.202198 0.255667,0.9685933 l 0,0.8010453 -0.4724845,0 -0.4724846,0 0,-0.5669815 0,-0.5669814 -9.0244547,0 -9.024455,0 0,0.5669814 0,0.5669815 -0.472484,0 -0.472485,0 0,-0.7916531 z"
       id="path3163"
       inkscape:connector-curvature="0" />
    <path
       style="fill:#003380"
       d="m -21.793202,11.120071 0,-1.4647017 0.472485,0 0.472484,0 0,1.4647017 0,1.464702 -0.472484,0 -0.472485,0 0,-1.464702 z"
       id="path3165"
       inkscape:connector-curvature="0" />
    <path
       style="fill:#003380"
       d="m -21.793202,11.120071 0,-1.4647017 0.472485,0 0.472484,0 0,1.4647017 0,1.464702 -0.472484,0 -0.472485,0 0,-1.464702 z"
       id="path3167"
       inkscape:connector-curvature="0" />
    <path
       style="fill:#003380"
       d="m -20.753736,27.279043 0,-18.9466304 8.929958,0 8.9299578,0 0,18.9466304 0,18.94663 -8.9299578,0 -8.929958,0 0,-18.94663 z"
       id="path3169"
       inkscape:connector-curvature="0" />
    <path
       style="fill:#003380"
       d="m -20.753736,27.279043 0,-18.9466304 8.929958,0 8.9299578,0 0,18.9466304 0,18.94663 -8.9299578,0 -8.929958,0 0,-18.94663 z"
       id="path3171"
       inkscape:connector-curvature="0" />
    <path
       style="fill:#003380"
       d="m -20.753736,27.279043 0,-18.9466304 8.929958,0 8.9299578,0 0,18.9466304 0,18.94663 -8.9299578,0 -8.929958,0 0,-18.94663 z m -1.039466,-12.898828 0,-1.417454 0.472485,0 0.472484,0 0,1.417454 0,1.417453 -0.472484,0 -0.472485,0 0,-1.417453 z"
       id="path3173"
       inkscape:connector-curvature="0" />
    <path
       style="fill:#003380"
       d="m -20.753736,27.279043 0,-18.9466304 8.929958,0 8.9299578,0 0,18.9466304 0,18.94663 -8.9299578,0 -8.929958,0 0,-18.94663 z"
       id="path3175"
       inkscape:connector-curvature="0" />
    <path
       style="fill:#003380"
       d="m -20.753736,27.279043 0,-18.9466304 8.929958,0 8.9299578,0 0,18.9466304 0,18.94663 -8.9299578,0 -8.929958,0 0,-18.94663 z"
       id="path3177"
       inkscape:connector-curvature="0" />
    <path
       style="fill:#003380"
       d="m -21.793202,14.380215 0,-1.417454 0.472485,0 0.472484,0 0,1.417454 0,1.417453 -0.472484,0 -0.472485,0 0,-1.417453 z"
       id="path3179"
       inkscape:connector-curvature="0" />
    <path
       style="fill:#003380"
       d="m -21.793202,14.380215 0,-1.417454 0.472485,0 0.472484,0 0,1.417454 0,1.417453 -0.472484,0 -0.472485,0 0,-1.417453 z"
       id="path3181"
       inkscape:connector-curvature="0" />
    <path
       style="fill:#003380"
       d="m -21.793202,12.773767 c 0,-0.163794 0.063,-0.188994 0.472485,-0.188994 0.409486,0 0.472484,0.0252 0.472484,0.188994 0,0.163795 -0.063,0.188994 -0.472484,0.188994 -0.409487,0 -0.472485,-0.0252 -0.472485,-0.188994 z"
       id="path3183"
       inkscape:connector-curvature="0" />
    <path
       style="fill:#003380"
       d="m -21.793202,11.120071 0,-1.4647017 0.472485,0 0.472484,0 0,1.4647017 0,1.464702 -0.472484,0 -0.472485,0 0,-1.464702 z"
       id="path3185"
       inkscape:connector-curvature="0" />
    <path
       style="fill:#003380"
       d="m -21.793202,11.120071 0,-1.4647017 0.472485,0 0.472484,0 0,1.4647017 0,1.464702 -0.472484,0 -0.472485,0 0,-1.464702 z"
       id="path3187"
       inkscape:connector-curvature="0" />
    <path
       style="fill:#003380"
       d="m -21.793202,9.5136239 c 0,-0.1070965 0.115496,-0.1417453 0.472485,-0.1417453 0.356988,0 0.472484,0.034649 0.472484,0.1417453 0,0.1070965 -0.115496,0.1417454 -0.472484,0.1417454 -0.356989,0 -0.472485,-0.034649 -0.472485,-0.1417454 z"
       id="path3189"
       inkscape:connector-curvature="0" />
    <path
       style="fill:#003380"
       d=""
       id="path3191"
       inkscape:connector-curvature="0" />
    <path
       style="fill:#003380"
       d=""
       id="path3193"
       inkscape:connector-curvature="0" />
    <path
       style="fill:#003380"
       d="m -20.753736,27.279043 0,-18.9466304 8.929958,0 8.9299578,0 0,18.9466304 0,18.94663 -8.9299578,0 -8.929958,0 0,-18.94663 z"
       id="path3195"
       inkscape:connector-curvature="0" />
    <path
       style="fill:#003380"
       d="m -20.753736,27.279043 0,-18.9466304 8.929958,0 8.9299578,0 0,18.9466304 0,18.94663 -8.9299578,0 -8.929958,0 0,-18.94663 z"
       id="path3197"
       inkscape:connector-curvature="0" />
    <path
       style="fill:#003380"
       d="m -20.753736,27.279043 0,-18.9466304 8.929958,0 8.9299578,0 0,18.9466304 0,18.94663 -8.9299578,0 -8.929958,0 0,-18.94663 z"
       id="path3199"
       inkscape:connector-curvature="0" />
    <path
       style="fill:#003380"
       d="m -2.7993233,10.505841 0,-1.1339624 0.4724846,0 0.4724845,0 0,1.1339624 0,1.133963 -0.4724845,0 -0.4724846,0 0,-1.133963 z"
       id="path3201"
       inkscape:connector-curvature="0" />
    <path
       style="fill:#003380"
       d="m -2.7993233,12.726519 0,-1.086715 0.4724846,0 0.4724845,0 0,1.086715 0,1.086714 -0.4724845,0 -0.4724846,0 0,-1.086714 z"
       id="path3203"
       inkscape:connector-curvature="0" />
    <path
       style="fill:#003380"
       d="m -2.7993233,11.025574 0,-2.7876583 -9.0244547,0 -9.024455,0 0,0.5669814 0,0.5669815 -0.472484,0 -0.472485,0 0,-0.7916531 c 0,-0.5573144 0.03855,-0.8236477 0.130235,-0.8997388 0.310209,-0.2574499 1.899031,-0.2986667 10.504867,-0.2725142 8.2319099,0.025016 8.8087096,0.0374 9.0480788,0.1942675 l 0.255667,0.167548 0,3.021723 0,3.021722 -0.4724845,0 -0.4724846,0 0,-2.787659 z"
       id="path3205"
       inkscape:connector-curvature="0" />
    <path
       style="fill:#003380"
       d="m -2.7993233,14.616457 0,-0.803224 0.4724846,0 0.4724845,0 0,0.803224 0,0.803224 -0.4724845,0 -0.4724846,0 0,-0.803224 z"
       id="path3207"
       inkscape:connector-curvature="0" />
    <path
       style="fill:#003380"
       d="m -2.7993233,16.411898 0,-0.992217 0.4724846,0 0.4724845,0 0,0.992217 0,0.992218 -0.4724845,0 -0.4724846,0 0,-0.992218 z"
       id="path3209"
       inkscape:connector-curvature="0" />
    <path
       style="fill:#003380"
       d="m -2.7993233,21.987216 0,-4.5831 0.4724846,0 0.4724845,0 0,4.5831 0,4.5831 -0.4724845,0 -0.4724846,0 0,-4.5831 z"
       id="path3211"
       inkscape:connector-curvature="0" />
    <path
       style="fill:#003380"
       d="m -2.7993233,17.404116 0,-9.1662003 -9.0244547,0 -9.024455,0 0,0.5669814 0,0.5669815 -0.472484,0 -0.472485,0 0,-0.7916531 c 0,-0.5573144 0.03855,-0.8236477 0.130235,-0.8997388 0.310209,-0.2574499 1.899031,-0.2986667 10.504867,-0.2725142 8.2319099,0.025016 8.8087096,0.0374 9.0480788,0.1942675 l 0.255667,0.167548 0,9.400264 0,9.400264 -0.4724845,0 -0.4724846,0 0,-9.1662 z"
       id="path3213"
       inkscape:connector-curvature="0" />
    <path
       style="fill:#003380"
       d="m -2.7993233,17.404116 0,-9.1662003 -9.0244547,0 -9.024455,0 0,0.5669814 0,0.5669815 -0.472484,0 -0.472485,0 0,-0.7916531 c 0,-0.5573144 0.03855,-0.8236477 0.130235,-0.8997388 0.310209,-0.2574499 1.899031,-0.2986667 10.504867,-0.2725142 8.2319099,0.025016 8.8087096,0.0374 9.0480788,0.1942675 l 0.255667,0.167548 0,9.400264 0,9.400264 -0.4724845,0 -0.4724846,0 0,-9.1662 z"
       id="path3215"
       inkscape:connector-curvature="0" />
    <path
       style="fill:#003380"
       d="m -21.477885,47.154183 c -0.284895,-0.138812 -0.312563,-0.310124 -0.314027,-1.944352 l -0.0013,-1.441078 0.472485,0 0.472484,0 0,1.275709 0,1.275708 9.024455,0 9.0244547,0 -0.020814,-1.39383 -0.020814,-1.393829 -0.02903,1.346581 -0.029028,1.346581 -8.9273637,0 -8.927363,0 0,-18.94663 0,-18.9466304 8.929455,0 8.929456,0 0.024635,8.5283464 0.024635,8.528346 0.023115,-8.575595 0.023116,-8.5755943 -9.024455,0 -9.024455,0 0,0.5669814 0,0.5669815 -0.472484,0 -0.472485,0 0,-0.7916531 c 0,-0.5573144 0.03855,-0.8236477 0.130235,-0.8997388 0.310209,-0.2574499 1.899031,-0.2986667 10.504867,-0.2725142 8.2319102,0.025016 8.8087099,0.0374 9.0480791,0.1942675 l 0.255667,0.167548 0,8.833282 0,8.833283 -0.4724845,0 -0.4724846,0 0,0.514556 0,0.514555 0.4488604,0.0288 0.4488603,0.0288 0.024597,4.228737 0.024597,4.228737 -0.4734569,0 -0.4734579,0 0,3.590882 0,3.590883 0.4724846,0 0.4724845,0 0,2.344361 c 0,1.87543 -0.026826,2.381053 -0.1341147,2.527793 -0.1310795,0.179279 -0.3508075,0.183837 -9.7095573,0.201375 -6.553569,0.01228 -9.639954,-0.01349 -9.779859,-0.08165 z"
       id="path3217"
       inkscape:connector-curvature="0" />
    <path
       style="fill:#003380"
       d="m -21.415214,47.048758 c -0.219506,-0.110662 -0.240514,-0.182531 -0.296538,-1.014449 -0.03316,-0.492443 -0.06506,-1.203647 -0.07087,-1.580453 l -0.01058,-0.685103 0.472485,0 0.472484,0 0,1.275709 0,1.275708 9.024455,0 9.0244547,0 -0.020537,-1.252084 -0.020537,-1.252084 -0.029535,1.204835 -0.029534,1.204836 -8.9271357,0 -8.927134,0 0,-18.94663 0,-18.9466304 8.929389,0 8.9293892,0 0.024771,7.4888804 0.02477,7.48888 0.023047,-7.536129 0.023047,-7.5361283 -9.0244552,0 -9.024455,0 0,0.5669814 0,0.5669815 -0.472484,0 -0.472485,0 0,-0.7916531 c 0,-0.5573144 0.03855,-0.8236477 0.130235,-0.8997388 0.31019,-0.2574346 1.898965,-0.2986666 10.500667,-0.2725142 7.3404073,0.022318 8.8310346,0.048683 9.0481403,0.1600361 l 0.259926,0.1333167 -0.031895,19.5220397 c -0.017543,10.737123 -0.062411,19.590642 -0.099708,19.674487 -0.04671,0.105009 -0.2469554,0.171171 -0.6435041,0.212618 -0.3166308,0.0331 -4.6198282,0.05954 -9.5626612,0.05878 -7.038686,-0.0011 -9.038184,-0.02721 -9.223211,-0.120491 z"
       id="path3219"
       inkscape:connector-curvature="0" />
    <path
       style="fill:#003380"
       d="m -21.415214,47.048759 c -0.21755,-0.109673 -0.241058,-0.186201 -0.297109,-0.967201 -0.03348,-0.466456 -0.06537,-7.471155 -0.07087,-15.565996 l -0.01001,-14.717894 0.472485,0 0.472484,0 0,15.261251 0,15.261251 9.024455,0 9.0244547,0 -0.019612,-0.921345 -0.019612,-0.921345 -0.031183,0.874096 -0.031182,0.874097 -8.9264117,0 -8.926412,0 0,-18.94663 0,-18.9466304 8.929164,0 8.9291651,0 0.025227,5.2682024 0.025227,5.268203 0.022815,-5.315451 0.022814,-5.3154513 -9.0244551,0 -9.024455,0 0,0.5669814 0,0.5669815 -0.472484,0 -0.472485,0 0,-0.7916531 c 0,-0.5573144 0.03855,-0.8236477 0.130235,-0.8997388 0.31019,-0.2574346 1.898965,-0.2986666 10.500667,-0.2725142 6.7795028,0.020612 8.8490447,0.053729 9.0543562,0.1448878 l 0.266142,0.1181685 -0.052953,19.5515942 c -0.029124,10.753377 -0.076789,19.613713 -0.1059235,19.689635 -0.034454,0.08979 -0.2542061,0.159073 -0.6286633,0.198212 -0.3166308,0.0331 -4.6198282,0.05954 -9.5626604,0.05878 -7.038619,-0.0011 -9.038186,-0.02721 -9.223211,-0.12049 z"
       id="path3221"
       inkscape:connector-curvature="0" />
    <path
       style="fill:#003380"
       d="m -21.393685,47.072426 c -0.118092,-0.04743 -0.235266,-0.140413 -0.260388,-0.206629 -0.02512,-0.06621 -0.05607,-7.721486 -0.06878,-17.011714 l -0.0231,-16.891323 0.44886,1e-6 0.44886,0 0,16.678704 0,16.678705 9.024455,0 9.0244547,0 -0.018208,-0.637854 -0.018208,-0.637854 -0.03355,0.590605 -0.033549,0.590606 -8.9254487,0 -8.925449,0 0,-18.94663 0,-18.9466304 8.928749,0 8.9287484,0 0.026082,3.3310164 0.026081,3.331016 0.022376,-3.378265 0.022376,-3.3782643 -9.0244544,0 -9.024455,0 0,0.5669814 0,0.5669815 -0.476163,0 -0.476164,0 0.0273,-0.8258483 c 0.02685,-0.8120097 0.03205,-0.8282402 0.310794,-0.9685933 0.247203,-0.124473 1.487052,-0.1427451 9.685933,-0.1427451 7.3190352,0 9.4614143,0.026184 9.6685827,0.1181675 l 0.2661401,0.1181674 -0.052499,19.5504182 c -0.028874,10.75273 -0.076539,19.613067 -0.1059216,19.689636 -0.034986,0.09117 -0.2521007,0.159984 -0.629115,0.199389 -0.9094666,0.09506 -18.5218522,0.05935 -18.7643432,-0.03804 l 0,0 z"
       id="path3223"
       inkscape:connector-curvature="0" />
    <path
       style="fill:#003380"
       d="m -21.393685,47.072426 c -0.118092,-0.04743 -0.234141,-0.140413 -0.257887,-0.206629 -0.02375,-0.06621 -0.05831,-7.721486 -0.0768,-17.011714 l -0.03363,-16.891322 0.456884,0 0.456885,0 0,16.678704 0,16.678705 9.024455,0 9.0244547,0 -0.016509,-0.448861 -0.016509,-0.44886 -0.036173,0.401612 -0.036173,0.401612 -8.9245247,0 -8.924524,0 0,-18.94663 0,-18.9466304 8.928184,0 8.9281835,0 0.027263,2.1498044 0.027263,2.149805 0.021759,-2.197053 0.02176,-2.1970533 -9.0244545,0 -9.024455,0 0,0.5669814 0,0.5669815 -0.476163,0 -0.476164,0 0.0273,-0.8258483 c 0.02685,-0.8120097 0.03205,-0.8282402 0.310794,-0.9685933 0.247203,-0.124473 1.487052,-0.1427451 9.685933,-0.1427451 7.3190967,0 9.4614134,0.026183 9.6685866,0.1181689 l 0.2661439,0.1181689 -0.052057,19.5492563 c -0.028632,10.752091 -0.076365,19.612601 -0.1060747,19.690023 -0.033578,0.0875 -0.2397311,0.163077 -0.5448257,0.199728 -0.7863003,0.09446 -18.6086401,0.0589 -18.8489281,-0.03761 l 0,0 z"
       id="path3225"
       inkscape:connector-curvature="0" />
    <path
       style="fill:#003380"
       d="m -21.38192,47.076777 c -0.111622,-0.04504 -0.225791,-0.118845 -0.25371,-0.164018 -0.02792,-0.04517 -0.07293,-7.702403 -0.100019,-17.016066 l -0.04926,-16.933932 0.468337,0 0.468337,0 0,16.678704 0,16.678705 9.024455,0 9.0244547,0 -0.014158,-0.307115 c -0.013179,-0.285847 -0.016885,-0.289119 -0.053525,-0.04725 l -0.039366,0.259867 -8.9236817,0 -8.923681,0 0,-18.94663 0,-18.9466304 8.927432,0 8.9274309,0 0.028879,1.3938294 0.028879,1.393829 0.020896,-1.4410775 0.020895,-1.4410778 -9.0244549,0 -9.024455,0 0,0.5669814 0,0.5669815 -0.476163,0 -0.476164,0 0.0273,-0.8258483 c 0.02685,-0.8120097 0.03205,-0.8282402 0.310794,-0.9685933 0.247231,-0.1244872 1.492155,-0.1427451 9.733182,-0.1427451 7.7081781,0 9.490506,0.023255 9.6711605,0.126183 l 0.2214686,0.1261829 -0.050887,19.5314872 c -0.027988,10.742318 -0.076955,19.599419 -0.108817,19.682449 -0.035913,0.09359 -0.2224703,0.173514 -0.4908859,0.210305 -0.6661446,0.0913 -18.6643212,0.05842 -18.8946772,-0.03452 l 0,0 z"
       id="path3227"
       inkscape:connector-curvature="0" />
    <path
       style="fill:#003380"
       d="m -21.38192,47.076777 c -0.111622,-0.04504 -0.226138,-0.119406 -0.254481,-0.165264 -0.02834,-0.04586 -0.07608,-7.703089 -0.106076,-17.016066 l -0.05454,-16.932686 0.474395,0 0.474394,0 0,16.678704 0,16.678705 9.024455,0 9.0244547,0 -0.010962,-0.212618 c -0.00825,-0.16 -0.021657,-0.171693 -0.054178,-0.04725 -0.040773,0.156022 -0.5475822,0.16537 -8.9662437,0.16537 l -8.923029,0 0,-18.94663 0,-18.9466304 8.926535,0 8.9265369,0 0.030893,0.9213448 0.030893,0.9213446 0.019777,-0.968593 0.019777,-0.9685933 -9.0244549,0 -9.024455,0 0,0.5669814 0,0.5669815 -0.476163,0 -0.476164,0 0.0273,-0.8258483 c 0.02685,-0.8120097 0.03205,-0.8282402 0.310794,-0.9685933 0.247231,-0.1244872 1.492155,-0.1427451 9.733182,-0.1427451 7.753393,0 9.4898568,0.02287 9.6734454,0.1274059 l 0.2237545,0.1274058 -0.048314,19.5279504 c -0.026573,10.740373 -0.076568,19.596925 -0.1111019,19.681227 -0.038983,0.09516 -0.2269353,0.175774 -0.495745,0.212618 -0.6661446,0.0913 -18.664321,0.05842 -18.894677,-0.03452 l 0,0 z"
       id="path3229"
       inkscape:connector-curvature="0" />
    <path
       style="fill:#003380"
       d="m -21.38192,47.076777 c -0.111622,-0.04504 -0.227835,-0.122151 -0.258251,-0.171365 -0.03042,-0.04921 -0.08095,-7.706444 -0.112288,-17.016066 l -0.05698,-16.926585 0.480606,0 0.480605,0 0,16.678704 0,16.678705 9.024455,0 c 8.5345629,0 9.0240493,-0.009 9.0169942,-0.16537 -0.00446,-0.09879 -0.026649,-0.117813 -0.055123,-0.04725 -0.037658,0.09333 -1.9204975,0.118121 -8.9697452,0.118121 l -8.922084,0 0,-18.94663 0,-18.9466304 8.925449,0 8.9254489,0 0.033549,0.5906056 0.03355,0.5906057 0.018208,-0.6378541 0.018208,-0.6378541 -9.0244549,0 -9.024455,0 0,0.5669814 0,0.5669815 -0.476163,0 -0.476164,0 0.0273,-0.8258483 c 0.02685,-0.8120097 0.03205,-0.8282402 0.310794,-0.9685933 0.247231,-0.1244872 1.492155,-0.1427451 9.733182,-0.1427451 7.753393,0 9.4898568,0.02287 9.6734454,0.1274059 l 0.2237545,0.1274058 -0.048314,19.5279504 c -0.026573,10.740373 -0.076682,19.597222 -0.1113552,19.681885 -0.034673,0.08466 -0.2199293,0.179874 -0.4116824,0.211579 -0.5464217,0.09034 -18.7511203,0.0576 -18.9784863,-0.03414 l 0,0 z"
       id="path3231"
       inkscape:connector-curvature="0" />
    <path
       style="fill:#003380"
       d="m -21.38192,47.076777 c -0.111622,-0.04504 -0.228516,-0.123253 -0.259765,-0.173815 -0.03125,-0.05056 -0.08228,-7.707791 -0.113399,-17.016065 l -0.05658,-16.924136 0.481718,0 0.481717,0 0,16.678704 0,16.678705 8.971629,0 c 4.9343964,0 8.9913452,-0.03189 9.015441,-0.07087 0.024097,-0.03898 -3.9918745,-0.05982 -8.924381,-0.0463 l -8.968192,0.02457 0,-18.947577 0,-18.9475774 8.924524,0 8.9245247,0 0.036173,0.4016118 0.036173,0.4016119 0.016509,-0.4488603 0.016509,-0.4488603 -9.0244547,0 -9.024455,0 0,0.5669814 0,0.5669815 -0.476163,0 -0.476164,0 0.0273,-0.8258483 c 0.02685,-0.8120097 0.03205,-0.8282402 0.310794,-0.9685933 0.247231,-0.1244872 1.492155,-0.1427451 9.733182,-0.1427451 7.7533928,0 9.4898566,0.02287 9.6734452,0.1274059 l 0.2237545,0.1274058 -0.048314,19.5279504 c -0.026573,10.740373 -0.076682,19.597222 -0.1113552,19.681885 -0.034673,0.08466 -0.2199293,0.179874 -0.4116824,0.211579 -0.5464217,0.09034 -18.7511211,0.0576 -18.9784871,-0.03414 l 0,0 z"
       id="path3233"
       inkscape:connector-curvature="0" />
    <path
       style="fill:#003380"
       d="m -21.38192,47.076777 c -0.111622,-0.04504 -0.229051,-0.124119 -0.260954,-0.175738 -0.0319,-0.05162 -0.08322,-7.708849 -0.114048,-17.016066 l -0.05604,-16.922212 0.482366,0 0.482366,0 0,16.678704 0,16.678705 8.859085,-0.02313 8.8590856,-0.02313 -8.8118366,-0.0246 -8.811837,-0.0246 0,-18.946143 0,-18.9461434 8.923681,0 8.9236819,0 0.039366,0.2598665 c 0.03664,0.2418702 0.040346,0.2385981 0.053525,-0.047249 l 0.014158,-0.3071149 -9.0244549,0 -9.024455,0 0,0.5669814 0,0.5669815 -0.476163,0 -0.476164,0 0.0273,-0.8258483 c 0.02685,-0.8120097 0.03205,-0.8282402 0.310794,-0.9685933 0.247231,-0.1244872 1.492155,-0.1427451 9.733182,-0.1427451 7.753393,0 9.4898568,0.02287 9.6734454,0.1274059 l 0.2237545,0.1274058 -0.048314,19.5279509 c -0.026573,10.740373 -0.076682,19.597221 -0.1113552,19.681884 -0.034673,0.08466 -0.2199293,0.179874 -0.4116824,0.211579 -0.5464217,0.09034 -18.7511213,0.0576 -18.9784863,-0.03414 l 0,0 z"
       id="path3235"
       inkscape:connector-curvature="0" />
    <path
       style="fill:#003380"
       d="m -21.38192,47.076777 c -0.111622,-0.04504 -0.229809,-0.125345 -0.262638,-0.178464 -0.03283,-0.05312 -0.08445,-7.710347 -0.114725,-17.016066 l -0.05504,-16.919486 0.483042,0 0.483043,0 0,16.678704 0,16.678705 8.150359,-0.02309 8.1503579,-0.02309 -8.1031099,-0.02469 -8.10311,-0.02469 0,-18.946102 0,-18.9461024 8.923029,0 c 8.418662,0 8.9254716,0.00935 8.9662442,0.1653696 0.032521,0.1244439 0.045929,0.1127508 0.054178,-0.047249 l 0.010962,-0.212618 -9.0244552,0 -9.024455,0 0,0.5669814 0,0.5669815 -0.476163,0 -0.476164,0 0.0273,-0.8258483 c 0.02685,-0.8120097 0.03205,-0.8282402 0.310794,-0.9685933 0.247231,-0.1244872 1.492155,-0.1427451 9.733182,-0.1427451 7.7533933,0 9.4898571,0.02287 9.6734457,0.1274059 l 0.2237545,0.1274058 -0.048314,19.5279499 c -0.026573,10.740373 -0.076826,19.597596 -0.1116736,19.682719 -0.034849,0.08512 -0.1935288,0.180799 -0.3526228,0.212618 -0.4527602,0.09055 -18.8096088,0.05583 -19.0372278,-0.03601 l 0,0 z"
       id="path3237"
       inkscape:connector-curvature="0" />
    <path
       style="fill:#003380"
       d="m -21.38192,47.076777 c -0.111622,-0.04504 -0.230646,-0.126699 -0.264497,-0.181472 -0.03385,-0.05477 -0.0857,-7.712003 -0.115225,-17.016065 l -0.05368,-16.916479 0.483543,0 0.483543,0 0,16.678704 0,16.678705 6.59116,-0.02297 6.5911589,-0.02297 -6.5439109,-0.02493 -6.543911,-0.02493 0,-18.945984 0,-18.9459824 8.922084,0 c 7.0492478,0 8.9320874,0.024795 8.9697453,0.1181211 0.028474,0.070565 0.050666,0.051542 0.055123,-0.047249 0.00706,-0.1563924 -0.4824313,-0.1653695 -9.0169943,-0.1653695 l -9.024455,0 0,0.5669814 0,0.5669815 -0.476163,0 -0.476164,0 0.0273,-0.8258483 c 0.02685,-0.8120097 0.03205,-0.8282402 0.310794,-0.9685933 0.247231,-0.1244872 1.492155,-0.1427451 9.733182,-0.1427451 7.7533929,0 9.4898567,0.02287 9.6734453,0.1274059 l 0.2237545,0.1274058 -0.048314,19.5279509 c -0.026573,10.740373 -0.076826,19.597596 -0.1116736,19.682718 -0.034849,0.08512 -0.1935288,0.180799 -0.3526228,0.212618 -0.4527602,0.09055 -18.8096094,0.05583 -19.0372284,-0.03601 l 0,0 z"
       id="path3239"
       inkscape:connector-curvature="0" />
    <path
       style="fill:#003380"
       d="m -21.38192,47.076777 c -0.111622,-0.04504 -0.231455,-0.128009 -0.266296,-0.184383 -0.03484,-0.05637 -0.08683,-7.713604 -0.115522,-17.016066 l -0.05217,-16.913567 0.436591,0 c 0.373593,0 0.436591,-0.02727 0.436591,-0.188994 0,-0.160994 -0.063,-0.188994 -0.425236,-0.188994 l -0.425236,0 0,-1.464702 c 0,-1.4539841 0.0016,-1.4647503 0.212618,-1.4713434 0.20155,-0.0063 0.20278,-0.010552 0.02362,-0.08176 -0.188993,-0.075118 -0.188993,-0.075118 0,-0.1241418 0.17,-0.044097 0.167257,-0.050126 -0.0273,-0.059986 -0.210276,-0.010657 -0.215537,-0.033951 -0.188994,-0.83681 0.02685,-0.8120097 0.03205,-0.8282402 0.310794,-0.9685933 0.247231,-0.1244872 1.492155,-0.1427451 9.733182,-0.1427451 7.7505919,0 9.4898973,0.022894 9.6733025,0.1273294 l 0.2236109,0.1273294 -0.047373,19.5280278 c -0.026055,10.740415 -0.076244,19.597672 -0.1115309,19.682794 -0.035287,0.08512 -0.1943263,0.180799 -0.3534203,0.212618 -0.4527602,0.09055 -18.8096092,0.05583 -19.0372282,-0.03601 l 0,0 z m 5.660144,-0.827462 -5.03196,-0.0253 0,-18.945801 0,-18.9458024 8.922084,0 c 5.9988882,0 8.9378205,0.031735 8.9701186,0.096859 0.026419,0.053273 0.037052,0.042642 0.023628,-0.023624 -0.019534,-0.096428 -1.8199197,-0.1252956 -9.0173676,-0.1445849 l -8.99296,-0.024101 0,0.5674586 c 0,0.5222297 -0.01695,0.5683323 -0.212618,0.5784203 -0.193862,0.00999 -0.195946,0.015286 -0.02362,0.059986 0.188994,0.049024 0.188994,0.049024 0,0.1241418 -0.179156,0.071207 -0.177926,0.075463 0.02362,0.08176 l 0.212618,0.00664 0,18.3324006 0,18.3324 5.079209,-0.02278 5.079209,-0.02278 -5.031961,-0.0253 0,0 z"
       id="path3241"
       inkscape:connector-curvature="0" />
    <path
       style="fill:#003380"
       d="m -21.38192,47.076777 c -0.111622,-0.04504 -0.232327,-0.129419 -0.268233,-0.187517 -0.03591,-0.0581 -0.08796,-7.715326 -0.115679,-17.016065 l -0.0504,-16.910434 0.460373,-0.01651 0.460373,-0.01651 -0.401612,-0.03617 c -0.518125,-0.04667 -0.518125,-0.192939 0,-0.239605 l 0.401612,-0.03617 -0.448861,-0.01651 -0.44886,-0.01651 0,-1.464702 c 0,-1.4527041 0.0017,-1.4647915 0.212618,-1.4756635 0.18017,-0.00929 0.185288,-0.01796 0.03353,-0.056819 -0.143893,-0.036845 -0.153178,-0.062262 -0.04725,-0.1293366 0.104859,-0.066397 0.09725,-0.083776 -0.03721,-0.084926 -0.151498,-0.0013 -0.166214,-0.087186 -0.141746,-0.8272953 0.02685,-0.8120097 0.03205,-0.8282402 0.310794,-0.9685933 0.247231,-0.1244872 1.492155,-0.1427451 9.733182,-0.1427451 7.7473771,0 9.4899436,0.022922 9.6731381,0.1272418 l 0.2234484,0.1272418 -0.046522,19.5281152 c -0.025586,10.740463 -0.075702,19.597759 -0.1113675,19.682881 -0.035665,0.08512 -0.1950142,0.180799 -0.3541082,0.212618 -0.4527602,0.09055 -18.8096088,0.05583 -19.0372278,-0.03601 l 0,0 z m 4.337447,-0.827448 -3.708745,-0.02585 -0.02414,-16.890226 -0.02414,-16.890226 -0.02336,16.938571 -0.02336,16.938571 3.756252,-0.02249 3.756252,-0.0225 -3.708744,-0.02585 z m 4.726428,-37.9405475 8.4320073,-0.024646 -8.4810973,-0.02311 -8.481098,-0.02311 0,0.5669814 c 0,0.5217349 -0.01697,0.5678562 -0.212618,0.5779432 -0.193862,0.00999 -0.195946,0.015286 -0.02362,0.059986 0.188994,0.049024 0.188994,0.049024 0,0.1241418 -0.179156,0.071207 -0.177926,0.075463 0.02362,0.08176 0.209567,0.00655 0.212929,0.026644 0.234301,1.4004711 0.01719,1.105016 0.02736,0.968057 0.04909,-0.660971 l 0.02741,-2.0548001 8.432008,-0.024646 0,0 z"
       id="path3243"
       inkscape:connector-curvature="0" />
    <path
       style="fill:#003380"
       d="m -21.38192,47.076777 c -0.111622,-0.04504 -0.228901,-0.123876 -0.26062,-0.175198 -0.05849,-0.09464 -0.119065,-10.382843 -0.1699,-28.856216 -0.02568,-9.3305379 -0.0151,-10.1915608 0.12695,-10.3336268 0.290395,-0.2904301 1.646361,-0.3292959 10.572381,-0.303034 7.1888237,0.021151 8.8750662,0.049651 9.0566694,0.1530724 l 0.2231497,0.1270826 -0.045223,19.5282738 c -0.024873,10.740552 -0.075079,19.598501 -0.1115668,19.684333 -0.036488,0.08583 -0.159078,0.180929 -0.2724223,0.211327 -0.331892,0.08901 -18.896215,0.05404 -19.119418,-0.03601 l 0,0 z m 3.297994,-0.827419 -2.669265,-0.02663 -0.02417,-16.039379 -0.02417,-16.039379 -0.02335,16.088099 -0.02335,16.088099 2.716786,-0.02209 2.716786,-0.02209 -2.669265,-0.02663 z m -3.305866,-33.348581 c -0.06398,-0.02589 -0.191548,-0.02746 -0.28349,-0.0035 -0.09194,0.02396 -0.0396,0.04514 0.116322,0.04706 0.15592,0.0019 0.231146,-0.01768 0.167168,-0.04356 z m 0,-0.283491 c -0.06398,-0.02589 -0.191548,-0.02746 -0.28349,-0.0035 -0.09194,0.02396 -0.0396,0.04514 0.116322,0.04706 0.15592,0.0019 0.231146,-0.01768 0.167168,-0.04356 z m 7.701878,-4.3085074 7.0614659,-0.024836 -7.1108919,-0.023013 -7.110893,-0.023013 0,0.5669814 c 0,0.4741424 -0.02708,0.568203 -0.165369,0.5744417 -0.115298,0.0052 -0.126367,0.022971 -0.03656,0.058687 0.108753,0.043249 0.108753,0.063936 0,0.1328381 -0.100809,0.063868 -0.09286,0.081926 0.03656,0.083058 0.145815,0.00128 0.167888,0.121568 0.186669,1.0172882 0.01357,0.647357 0.0315,0.407631 0.04943,-0.660877 l 0.02813,-1.6767189 7.061466,-0.024836 z m -7.84739,1.100505 c -0.0314,-0.031401 -0.112904,-0.034758 -0.181119,-0.00746 -0.07538,0.030166 -0.05299,0.052558 0.05709,0.057092 0.09962,0.0041 0.155427,-0.018231 0.124027,-0.049632 z"
       id="path3245"
       inkscape:connector-curvature="0" />
    <path
       style="fill:#003380"
       d="m -21.38192,47.07748 c -0.111622,-0.04542 -0.234999,-0.134445 -0.274171,-0.197827 -0.03917,-0.06338 -0.09119,-8.507298 -0.115603,-18.764259 -0.03749,-15.755325 -0.02428,-18.6492431 0.08518,-18.6504656 0.103799,-0.00116 0.105263,-0.016859 0.0074,-0.078967 -0.08794,-0.055789 -0.11443,-0.3001355 -0.0945,-0.8716713 0.02708,-0.776565 0.03398,-0.7973125 0.311187,-0.9368752 0.247212,-0.1244585 1.492807,-0.1427234 9.733182,-0.1427234 7.7370826,0 9.4900919,0.02301 9.6726156,0.126962 l 0.2229248,0.126962 -0.038026,19.5986385 c -0.030201,15.566161 -0.062455,19.62307 -0.156759,19.717388 -0.093506,0.09352 -2.1406876,0.122648 -9.6345894,0.137089 -5.26044,0.01014 -9.606614,-0.0186 -9.718805,-0.06425 z m 2.542092,-0.828069 -1.913216,-0.02765 -0.02432,-12.542509 -0.02432,-12.542509 -0.02328,12.591713 -0.02328,12.591713 1.960811,-0.02155 1.960811,-0.02155 -1.913217,-0.02765 z m -2.600979,-33.343742 c -0.0314,-0.0314 -0.112904,-0.03476 -0.181119,-0.0075 -0.07538,0.03017 -0.05299,0.05256 0.05709,0.05709 0.09962,0.0041 0.155427,-0.01823 0.124027,-0.04963 l 0,0 z m 0,-0.283491 c -0.0314,-0.0314 -0.112904,-0.03476 -0.181119,-0.0075 -0.07538,0.03017 -0.05299,0.05256 0.05709,0.05709 0.09962,0.0041 0.155427,-0.01823 0.124027,-0.04963 l 0,0 z m 0.647431,-3.1228028 c -0.02691,-0.070123 -0.124676,-0.1241395 -0.217261,-0.1200364 -0.115781,0.00513 -0.12812,0.023453 -0.03952,0.058687 0.108753,0.043249 0.108753,0.063936 0,0.1328381 -0.100809,0.063868 -0.09286,0.081926 0.03656,0.083058 0.13917,0.00122 0.168301,0.1025006 0.183877,0.6393011 l 0.01851,0.637855 0.03338,-0.652103 c 0.01836,-0.3586573 0.01137,-0.7094771 -0.01554,-0.7796002 z m 5.361561,-1.1906058 5.308981,-0.025211 -5.362699,-0.022822 -5.3627,-0.022821 0.01287,0.2598665 c 0.01097,0.2216322 0.01888,0.2286992 0.05372,0.048032 l 0.04085,-0.2118342 5.308982,-0.025211 z"
       id="path3247"
       inkscape:connector-curvature="0" />
    <path
       style="fill:#003380"
       d="m -21.38192,47.07748 c -0.111622,-0.04542 -0.235882,-0.135875 -0.276135,-0.201005 -0.04025,-0.06513 -0.09213,-8.509045 -0.115293,-18.764258 -0.03552,-15.729858 -0.0219,-18.6460679 0.08714,-18.6472886 0.103637,-0.00116 0.105034,-0.016808 0.0071,-0.078967 -0.08794,-0.055789 -0.11443,-0.3001355 -0.0945,-0.8716713 0.02708,-0.776565 0.03398,-0.7973125 0.311187,-0.9368752 0.247212,-0.1244585 1.492807,-0.1427234 9.733182,-0.1427234 7.7257232,0 9.4902554,0.023106 9.672041,0.1266547 l 0.2223512,0.1266547 -0.034853,19.5963471 c -0.028086,15.791132 -0.058414,19.619911 -0.1561854,19.717696 -0.096934,0.09695 -2.0347991,0.125037 -9.6371878,0.139687 -5.26044,0.01014 -9.606614,-0.0186 -9.718805,-0.06425 z m 2.069744,-0.82799 -1.440597,-0.02874 -0.02459,-8.903875 -0.02459,-8.903874 -0.02314,8.953582 -0.02314,8.953582 1.488327,-0.02097 1.488326,-0.02097 -1.440596,-0.02873 z M -20.792914,9.5005807 c -0.02716,-0.070786 -0.09576,-0.1287021 -0.152427,-0.1287021 -0.05667,0 -0.079,0.038892 -0.04963,0.086426 0.02938,0.047534 -6e-6,0.1079625 -0.0653,0.134285 -0.07162,0.028873 -0.0531,0.050819 0.04666,0.055319 0.135258,0.0061 0.168623,0.1063967 0.183237,0.5508184 l 0.01787,0.543357 0.03449,-0.556401 c 0.01897,-0.3060204 0.01226,-0.6143166 -0.0149,-0.6851027 l 0,0 z"
       id="path3249"
       inkscape:connector-curvature="0" />
    <path
       style="fill:#003380"
       d="m -21.415214,47.049419 c -0.216898,-0.110087 -0.240356,-0.185477 -0.286483,-0.920686 -0.02763,-0.440429 -0.06389,-8.869636 -0.08057,-18.731569 -0.0254,-15.021293 -0.0096,-17.9310234 0.09749,-17.9322356 0.09491,-0.00107 0.09862,-0.020007 0.01441,-0.073533 -0.06767,-0.043014 -0.124657,-0.3651793 -0.141309,-0.7988383 -0.03607,-0.9393872 0.02966,-1.0081667 1.073092,-1.1228223 0.443651,-0.04875 4.676926,-0.075592 9.62547,-0.061033 7.1574554,0.021059 8.8755406,0.049932 9.0549902,0.152174 l 0.2214724,0.1261843 -0.032479,19.5953269 c -0.026382,15.917187 -0.055533,19.618384 -0.1553057,19.718166 -0.1791321,0.179149 -19.0404419,0.22668 -19.3907829,0.04887 z m 1.678013,-0.799757 -1.015148,-0.03037 -0.02502,-6.068237 -0.02502,-6.068236 -0.02292,6.118675 -0.02292,6.118675 1.06309,-0.02007 1.063091,-0.02007 -1.015149,-0.03037 z M -20.792057,9.5028131 c -0.06705,-0.1747241 -0.213671,-0.1673056 -0.213671,0.010811 0,0.07796 0.03544,0.1417454 0.07875,0.1417454 0.04331,0 0.08618,0.1807253 0.09526,0.4016115 l 0.01651,0.401612 0.0367,-0.412423 c 0.02019,-0.2268319 0.01409,-0.4713427 -0.01354,-0.5433567 z"
       id="path3251"
       inkscape:connector-curvature="0" />
  </g>
</svg>
